<mxfile host="app.diagrams.net" modified="2024-03-13T19:28:11.104Z" agent="Mozilla/5.0 (Windows NT 10.0; Win64; x64) AppleWebKit/537.36 (KHTML, like Gecko) Chrome/122.0.0.0 Safari/537.36" etag="POal5zwda5bebVh2aCsr" version="24.0.6" type="device">
  <diagram name="Page-1" id="hY0zUJ6VUOVp_ipFEQ9G">
    <mxGraphModel dx="819" dy="471" grid="1" gridSize="10" guides="1" tooltips="1" connect="1" arrows="1" fold="1" page="1" pageScale="1" pageWidth="850" pageHeight="1100" math="0" shadow="0">
      <root>
        <mxCell id="0" />
        <mxCell id="1" parent="0" />
        <mxCell id="A0ErhaT3o3X4rKwPV9Aq-17" style="edgeStyle=orthogonalEdgeStyle;rounded=0;orthogonalLoop=1;jettySize=auto;html=1;" edge="1" parent="1" source="A0ErhaT3o3X4rKwPV9Aq-2" target="A0ErhaT3o3X4rKwPV9Aq-14">
          <mxGeometry relative="1" as="geometry" />
        </mxCell>
        <mxCell id="A0ErhaT3o3X4rKwPV9Aq-2" value="Produtos" style="swimlane;fontStyle=0;childLayout=stackLayout;horizontal=1;startSize=26;fillColor=none;horizontalStack=0;resizeParent=1;resizeParentMax=0;resizeLast=0;collapsible=1;marginBottom=0;whiteSpace=wrap;html=1;" vertex="1" parent="1">
          <mxGeometry x="355" y="30" width="140" height="210" as="geometry" />
        </mxCell>
        <mxCell id="A0ErhaT3o3X4rKwPV9Aq-3" value="- ID: Long" style="text;strokeColor=none;fillColor=none;align=left;verticalAlign=top;spacingLeft=4;spacingRight=4;overflow=hidden;rotatable=0;points=[[0,0.5],[1,0.5]];portConstraint=eastwest;whiteSpace=wrap;html=1;" vertex="1" parent="A0ErhaT3o3X4rKwPV9Aq-2">
          <mxGeometry y="26" width="140" height="26" as="geometry" />
        </mxCell>
        <mxCell id="A0ErhaT3o3X4rKwPV9Aq-4" value="- Preco: double" style="text;strokeColor=none;fillColor=none;align=left;verticalAlign=top;spacingLeft=4;spacingRight=4;overflow=hidden;rotatable=0;points=[[0,0.5],[1,0.5]];portConstraint=eastwest;whiteSpace=wrap;html=1;" vertex="1" parent="A0ErhaT3o3X4rKwPV9Aq-2">
          <mxGeometry y="52" width="140" height="26" as="geometry" />
        </mxCell>
        <mxCell id="A0ErhaT3o3X4rKwPV9Aq-6" value="- Marca: String" style="text;strokeColor=none;fillColor=none;align=left;verticalAlign=top;spacingLeft=4;spacingRight=4;overflow=hidden;rotatable=0;points=[[0,0.5],[1,0.5]];portConstraint=eastwest;whiteSpace=wrap;html=1;" vertex="1" parent="A0ErhaT3o3X4rKwPV9Aq-2">
          <mxGeometry y="78" width="140" height="26" as="geometry" />
        </mxCell>
        <mxCell id="A0ErhaT3o3X4rKwPV9Aq-5" value="- Descricao : String" style="text;strokeColor=none;fillColor=none;align=left;verticalAlign=top;spacingLeft=4;spacingRight=4;overflow=hidden;rotatable=0;points=[[0,0.5],[1,0.5]];portConstraint=eastwest;whiteSpace=wrap;html=1;" vertex="1" parent="A0ErhaT3o3X4rKwPV9Aq-2">
          <mxGeometry y="104" width="140" height="26" as="geometry" />
        </mxCell>
        <mxCell id="A0ErhaT3o3X4rKwPV9Aq-24" value="- Modelo: String" style="text;strokeColor=none;fillColor=none;align=left;verticalAlign=top;spacingLeft=4;spacingRight=4;overflow=hidden;rotatable=0;points=[[0,0.5],[1,0.5]];portConstraint=eastwest;whiteSpace=wrap;html=1;" vertex="1" parent="A0ErhaT3o3X4rKwPV9Aq-2">
          <mxGeometry y="130" width="140" height="26" as="geometry" />
        </mxCell>
        <mxCell id="A0ErhaT3o3X4rKwPV9Aq-12" value="- MostrarEspecificacoes" style="text;strokeColor=default;fillColor=none;align=left;verticalAlign=top;spacingLeft=4;spacingRight=4;overflow=hidden;rotatable=0;points=[[0,0.5],[1,0.5]];portConstraint=eastwest;whiteSpace=wrap;html=1;" vertex="1" parent="A0ErhaT3o3X4rKwPV9Aq-2">
          <mxGeometry y="156" width="140" height="54" as="geometry" />
        </mxCell>
        <mxCell id="A0ErhaT3o3X4rKwPV9Aq-7" value="Televisao" style="swimlane;fontStyle=0;childLayout=stackLayout;horizontal=1;startSize=26;fillColor=none;horizontalStack=0;resizeParent=1;resizeParentMax=0;resizeLast=0;collapsible=1;marginBottom=0;whiteSpace=wrap;html=1;" vertex="1" parent="1">
          <mxGeometry x="140" y="190" width="150" height="104" as="geometry" />
        </mxCell>
        <mxCell id="A0ErhaT3o3X4rKwPV9Aq-8" value="- Polegadas: int" style="text;strokeColor=none;fillColor=none;align=left;verticalAlign=top;spacingLeft=4;spacingRight=4;overflow=hidden;rotatable=0;points=[[0,0.5],[1,0.5]];portConstraint=eastwest;whiteSpace=wrap;html=1;" vertex="1" parent="A0ErhaT3o3X4rKwPV9Aq-7">
          <mxGeometry y="26" width="150" height="26" as="geometry" />
        </mxCell>
        <mxCell id="A0ErhaT3o3X4rKwPV9Aq-23" value="- ResolucaoTela: String" style="text;strokeColor=none;fillColor=none;align=left;verticalAlign=top;spacingLeft=4;spacingRight=4;overflow=hidden;rotatable=0;points=[[0,0.5],[1,0.5]];portConstraint=eastwest;whiteSpace=wrap;html=1;" vertex="1" parent="A0ErhaT3o3X4rKwPV9Aq-7">
          <mxGeometry y="52" width="150" height="26" as="geometry" />
        </mxCell>
        <mxCell id="A0ErhaT3o3X4rKwPV9Aq-9" value="- Resolucao: String" style="text;strokeColor=none;fillColor=none;align=left;verticalAlign=top;spacingLeft=4;spacingRight=4;overflow=hidden;rotatable=0;points=[[0,0.5],[1,0.5]];portConstraint=eastwest;whiteSpace=wrap;html=1;" vertex="1" parent="A0ErhaT3o3X4rKwPV9Aq-7">
          <mxGeometry y="78" width="150" height="26" as="geometry" />
        </mxCell>
        <mxCell id="A0ErhaT3o3X4rKwPV9Aq-13" style="edgeStyle=orthogonalEdgeStyle;rounded=0;orthogonalLoop=1;jettySize=auto;html=1;entryX=0.5;entryY=0;entryDx=0;entryDy=0;" edge="1" parent="1" source="A0ErhaT3o3X4rKwPV9Aq-6" target="A0ErhaT3o3X4rKwPV9Aq-7">
          <mxGeometry relative="1" as="geometry" />
        </mxCell>
        <mxCell id="A0ErhaT3o3X4rKwPV9Aq-14" value="Geladeira" style="swimlane;fontStyle=0;childLayout=stackLayout;horizontal=1;startSize=26;fillColor=none;horizontalStack=0;resizeParent=1;resizeParentMax=0;resizeLast=0;collapsible=1;marginBottom=0;whiteSpace=wrap;html=1;" vertex="1" parent="1">
          <mxGeometry x="330" y="330" width="182" height="104" as="geometry" />
        </mxCell>
        <mxCell id="A0ErhaT3o3X4rKwPV9Aq-15" value="- Cor: String" style="text;strokeColor=none;fillColor=none;align=left;verticalAlign=top;spacingLeft=4;spacingRight=4;overflow=hidden;rotatable=0;points=[[0,0.5],[1,0.5]];portConstraint=eastwest;whiteSpace=wrap;html=1;" vertex="1" parent="A0ErhaT3o3X4rKwPV9Aq-14">
          <mxGeometry y="26" width="182" height="26" as="geometry" />
        </mxCell>
        <mxCell id="A0ErhaT3o3X4rKwPV9Aq-18" value="- Capacidade: String&lt;div&gt;&lt;br&gt;&lt;/div&gt;" style="text;strokeColor=none;fillColor=none;align=left;verticalAlign=top;spacingLeft=4;spacingRight=4;overflow=hidden;rotatable=0;points=[[0,0.5],[1,0.5]];portConstraint=eastwest;whiteSpace=wrap;html=1;" vertex="1" parent="A0ErhaT3o3X4rKwPV9Aq-14">
          <mxGeometry y="52" width="182" height="26" as="geometry" />
        </mxCell>
        <mxCell id="A0ErhaT3o3X4rKwPV9Aq-16" value="- EficienciaEnergetica: String" style="text;strokeColor=none;fillColor=none;align=left;verticalAlign=top;spacingLeft=4;spacingRight=4;overflow=hidden;rotatable=0;points=[[0,0.5],[1,0.5]];portConstraint=eastwest;whiteSpace=wrap;html=1;" vertex="1" parent="A0ErhaT3o3X4rKwPV9Aq-14">
          <mxGeometry y="78" width="182" height="26" as="geometry" />
        </mxCell>
        <mxCell id="A0ErhaT3o3X4rKwPV9Aq-19" value="Televisao" style="swimlane;fontStyle=0;childLayout=stackLayout;horizontal=1;startSize=26;fillColor=none;horizontalStack=0;resizeParent=1;resizeParentMax=0;resizeLast=0;collapsible=1;marginBottom=0;whiteSpace=wrap;html=1;" vertex="1" parent="1">
          <mxGeometry x="549" y="190" width="151" height="104" as="geometry" />
        </mxCell>
        <mxCell id="A0ErhaT3o3X4rKwPV9Aq-20" value="- Bocas: int" style="text;strokeColor=none;fillColor=none;align=left;verticalAlign=top;spacingLeft=4;spacingRight=4;overflow=hidden;rotatable=0;points=[[0,0.5],[1,0.5]];portConstraint=eastwest;whiteSpace=wrap;html=1;" vertex="1" parent="A0ErhaT3o3X4rKwPV9Aq-19">
          <mxGeometry y="26" width="151" height="26" as="geometry" />
        </mxCell>
        <mxCell id="A0ErhaT3o3X4rKwPV9Aq-21" value="- Cor: String" style="text;strokeColor=none;fillColor=none;align=left;verticalAlign=top;spacingLeft=4;spacingRight=4;overflow=hidden;rotatable=0;points=[[0,0.5],[1,0.5]];portConstraint=eastwest;whiteSpace=wrap;html=1;" vertex="1" parent="A0ErhaT3o3X4rKwPV9Aq-19">
          <mxGeometry y="52" width="151" height="26" as="geometry" />
        </mxCell>
        <mxCell id="A0ErhaT3o3X4rKwPV9Aq-25" value="- CapacidadeForno: String" style="text;strokeColor=none;fillColor=none;align=left;verticalAlign=top;spacingLeft=4;spacingRight=4;overflow=hidden;rotatable=0;points=[[0,0.5],[1,0.5]];portConstraint=eastwest;whiteSpace=wrap;html=1;" vertex="1" parent="A0ErhaT3o3X4rKwPV9Aq-19">
          <mxGeometry y="78" width="151" height="26" as="geometry" />
        </mxCell>
        <mxCell id="A0ErhaT3o3X4rKwPV9Aq-22" style="edgeStyle=orthogonalEdgeStyle;rounded=0;orthogonalLoop=1;jettySize=auto;html=1;entryX=0.5;entryY=0;entryDx=0;entryDy=0;" edge="1" parent="1" source="A0ErhaT3o3X4rKwPV9Aq-6" target="A0ErhaT3o3X4rKwPV9Aq-19">
          <mxGeometry relative="1" as="geometry" />
        </mxCell>
      </root>
    </mxGraphModel>
  </diagram>
</mxfile>
